<svg width="148" height="346" viewBox="0 0 148 346" fill="none" xmlns="http://www.w3.org/2000/svg">
<path d="M26.5118 311.581H13.823L16.0902 296.189H24.2446L26.5118 311.581Z" fill="#535461"/>
<path d="M135.246 311.581H122.563L124.825 296.189H132.985L135.246 311.581Z" fill="#535461"/>
<path d="M67.7384 311.581H55.0549L57.3168 296.189H65.4765L67.7384 311.581Z" fill="#535461"/>
<path d="M93.5653 311.581H80.8818L83.1437 296.189H91.2981L93.5653 311.581Z" fill="#535461"/>
<path d="M117.125 168.988H26.512V172.61H117.125V168.988Z" fill="#535461"/>
<path d="M131.129 111.78C130.651 111.252 130.066 110.83 129.414 110.541C128.762 110.252 128.057 110.102 127.343 110.102C126.63 110.102 125.925 110.252 125.273 110.541C124.621 110.83 124.036 111.252 123.558 111.78C120.921 114.591 118.537 118.304 116.457 122.252C110.287 134.133 107.096 147.333 107.158 160.718V300.073H147.262V160.13C147.312 147.116 144.276 134.274 138.401 122.658C135.616 117.23 133.081 113.832 131.129 111.78Z" fill="#E0E0E0"/>
<path d="M16.1277 111.78C16.6064 111.252 17.1906 110.83 17.8427 110.541C18.4947 110.252 19.2001 110.102 19.9135 110.102C20.6268 110.102 21.3322 110.252 21.9843 110.541C22.6363 110.83 23.2205 111.252 23.6993 111.78C26.3408 114.591 28.7203 118.304 30.8057 122.252C36.9733 134.134 40.1641 147.333 40.1044 160.718V300.073H0.000612465V160.13C-0.0495867 147.116 2.98673 134.274 8.86086 122.658C11.6414 117.23 14.176 113.832 16.1277 111.78Z" fill="#E0E0E0"/>
<path d="M0.230469 163.101L9.7484 163.149V174.87H0.230469V163.101Z" fill="#535461"/>
<path d="M30.5864 163.101L40.1044 163.149V174.87H30.5864V163.101Z" fill="#535461"/>
<path d="M107.158 163.101L116.671 163.149V174.87H107.158V163.101Z" fill="#535461"/>
<path d="M137.514 163.101L147.026 163.149V174.87H137.514V163.101Z" fill="#535461"/>
<path opacity="0.1" d="M120.082 122.455C122.162 118.507 124.547 114.794 127.183 111.983C127.676 111.451 128.273 111.026 128.937 110.733C127.957 110.305 126.867 110.195 125.821 110.419C124.775 110.643 123.826 111.191 123.109 111.983C120.467 114.794 118.082 118.507 116.002 122.455C109.835 134.337 106.644 147.536 106.703 160.921V300.286H110.783V160.932C110.719 147.543 113.91 134.339 120.082 122.455Z" fill="black"/>
<path d="M20.3412 345.986H19.9936C18.3571 345.986 16.7876 345.337 15.6303 344.181C14.4731 343.024 13.823 341.456 13.823 339.821V311.581H26.5118V339.821C26.5118 341.456 25.8617 343.024 24.7045 344.181C23.5473 345.337 21.9778 345.986 20.3412 345.986Z" fill="url(#paint0_linear_1601_3)"/>
<path d="M61.5731 345.986H61.2202C59.5846 345.985 58.0164 345.335 56.8604 344.179C55.7043 343.023 55.0549 341.455 55.0549 339.821V311.581H67.7384V339.821C67.7384 341.455 67.089 343.023 65.933 344.179C64.7769 345.335 63.2088 345.985 61.5731 345.986Z" fill="url(#paint1_linear_1601_3)"/>
<path d="M87.3947 345.986H87.0364C85.4027 345.982 83.8373 345.331 82.6835 344.175C81.5298 343.019 80.8818 341.454 80.8818 339.821V311.581H93.5653V339.821C93.5653 341.456 92.9152 343.024 91.758 344.181C90.6008 345.337 89.0312 345.986 87.3947 345.986Z" fill="url(#paint2_linear_1601_3)"/>
<path d="M129.081 345.987H128.744C127.933 345.988 127.13 345.829 126.38 345.52C125.63 345.211 124.948 344.757 124.374 344.185C123.8 343.612 123.344 342.932 123.034 342.183C122.723 341.434 122.563 340.632 122.563 339.821V311.581H135.246V339.821C135.246 341.455 134.597 343.023 133.441 344.179C132.285 345.335 130.717 345.985 129.081 345.987Z" fill="url(#paint3_linear_1601_3)"/>
<path d="M78.6627 2.5148C78.0002 1.7272 77.1732 1.09397 76.2398 0.659541C75.3064 0.225111 74.2891 0 73.2594 0C72.2297 0 71.2124 0.225111 70.279 0.659541C69.3456 1.09397 68.5186 1.7272 67.8561 2.5148C64.1131 6.72472 60.6909 12.2863 57.6965 18.2058C48.895 35.7507 44.4248 55.6677 44.4248 75.8625V299.506H101.639V74.9649C101.639 55.3418 97.3617 35.9644 88.9988 18.8149C85.0686 10.6782 81.4486 5.61881 78.6627 2.5148Z" fill="#EEEEEE"/>
<path d="M81.7106 27.3576H63.6158C60.3673 27.3576 57.7339 29.9887 57.7339 33.2344V35.1524C57.7339 38.398 60.3673 41.0291 63.6158 41.0291H81.7106C84.9591 41.0291 87.5925 38.398 87.5925 35.1524V33.2344C87.5925 29.9887 84.9591 27.3576 81.7106 27.3576Z" fill="#535461"/>
<defs>
<linearGradient id="paint0_linear_1601_3" x1="20.1701" y1="311.581" x2="20.1701" y2="345.986" gradientUnits="userSpaceOnUse">
<stop stop-color="#E0E0E0"/>
<stop offset="0.31" stop-color="#FCCC63"/>
<stop offset="0.77" stop-color="#F55F44"/>
</linearGradient>
<linearGradient id="paint1_linear_1601_3" x1="6828.66" y1="21923.3" x2="6828.66" y2="24139.1" gradientUnits="userSpaceOnUse">
<stop stop-color="#E0E0E0"/>
<stop offset="0.31" stop-color="#FCCC63"/>
<stop offset="0.77" stop-color="#F55F44"/>
</linearGradient>
<linearGradient id="paint2_linear_1601_3" x1="7467.12" y1="21923.3" x2="7467.12" y2="24139.1" gradientUnits="userSpaceOnUse">
<stop stop-color="#E0E0E0"/>
<stop offset="0.31" stop-color="#FCCC63"/>
<stop offset="0.77" stop-color="#F55F44"/>
</linearGradient>
<linearGradient id="paint3_linear_1601_3" x1="8497.46" y1="21923.4" x2="8497.46" y2="24139.1" gradientUnits="userSpaceOnUse">
<stop stop-color="#E0E0E0"/>
<stop offset="0.31" stop-color="#FCCC63"/>
<stop offset="0.77" stop-color="#F55F44"/>
</linearGradient>
</defs>
</svg>
