<svg width="563" height="435" viewBox="0 0 563 435" fill="none" xmlns="http://www.w3.org/2000/svg">
<g clip-path="url(#clip0_20_231)">
<path d="M535.914 409.441C530.983 409.864 526.021 409.798 521.103 409.243C467.032 403.27 393.401 404.969 333.38 442.126C250.37 493.505 120.279 449.52 62.893 425.591C19.0462 407.314 -3.71673 362.549 9.95598 320.53C10.1485 319.937 10.3463 319.344 10.5549 318.751C19.1585 293.78 36.1411 274.237 57.1715 263.878C75.5016 254.849 102.264 235.995 114.172 199.768C119.092 184.808 125.84 170.736 134.604 158.47C158.073 125.618 207.202 76.6969 291.698 77.0014C306.513 77.0731 321.217 79.5598 335.23 84.3634C366.099 94.8722 393.979 116.237 415.239 145.856C428.805 164.747 449.135 182.308 478.24 183.74C518.632 185.738 557.18 204.528 586.097 237.967C586.932 238.928 587.755 239.895 588.578 240.873C640.066 302.157 604.304 403.468 535.914 409.441Z" fill="#6C63FF"/>
<g opacity="0.7">
<path opacity="0.7" d="M148.362 372.434C152.438 372.434 155.742 369.133 155.742 365.061C155.742 360.989 152.438 357.688 148.362 357.688C144.287 357.688 140.983 360.989 140.983 365.061C140.983 369.133 144.287 372.434 148.362 372.434Z" fill="url(#paint0_linear_20_231)"/>
</g>
<path opacity="0.2" d="M148.363 372.102C152.255 372.102 155.41 368.95 155.41 365.061C155.41 361.172 152.255 358.019 148.363 358.019C144.47 358.019 141.315 361.172 141.315 365.061C141.315 368.95 144.47 372.102 148.363 372.102Z" fill="black"/>
<path d="M108.606 223.981C110.113 223.981 111.333 222.761 111.333 221.256C111.333 219.751 110.113 218.531 108.606 218.531C107.1 218.531 105.879 219.751 105.879 221.256C105.879 222.761 107.1 223.981 108.606 223.981Z" fill="white"/>
<path d="M303.243 382.12C304.749 382.12 305.97 380.9 305.97 379.395C305.97 377.89 304.749 376.67 303.243 376.67C301.737 376.67 300.516 377.89 300.516 379.395C300.516 380.9 301.737 382.12 303.243 382.12Z" fill="white"/>
<path d="M188.279 394.808C189.121 394.808 189.803 394.126 189.803 393.285C189.803 392.445 189.121 391.763 188.279 391.763C187.438 391.763 186.755 392.445 186.755 393.285C186.755 394.126 187.438 394.808 188.279 394.808Z" fill="white"/>
<path d="M525.686 321.081C526.527 321.081 527.21 320.399 527.21 319.558C527.21 318.718 526.527 318.036 525.686 318.036C524.844 318.036 524.162 318.718 524.162 319.558C524.162 320.399 524.844 321.081 525.686 321.081Z" fill="white"/>
<path d="M438.527 184.312C439.368 184.312 440.051 183.63 440.051 182.79C440.051 181.949 439.368 181.267 438.527 181.267C437.685 181.267 437.003 181.949 437.003 182.79C437.003 183.63 437.685 184.312 438.527 184.312Z" fill="white"/>
<path d="M562.046 251.094C562.888 251.094 563.57 250.412 563.57 249.571C563.57 248.73 562.888 248.049 562.046 248.049C561.205 248.049 560.522 248.73 560.522 249.571C560.522 250.412 561.205 251.094 562.046 251.094Z" fill="white"/>
<path d="M156.731 134.76C158.237 134.76 159.458 133.54 159.458 132.035C159.458 130.531 158.237 129.311 156.731 129.311C155.225 129.311 154.004 130.531 154.004 132.035C154.004 133.54 155.225 134.76 156.731 134.76Z" fill="white"/>
<path d="M81.7795 316.39H79.3519V313.965H78.3627V316.39H75.9351V317.379H78.3627V319.799H79.3519V317.379H81.7795V316.39Z" fill="white"/>
<path d="M142.737 315.322H140.31V312.896H139.32V315.322H136.893V316.31H139.32V318.73H140.31V316.31H142.737V315.322Z" fill="white"/>
<path d="M229.896 364.473H227.469V362.048H226.479V364.473H224.052V365.462H226.479V367.882H227.469V365.462H229.896V364.473Z" fill="white"/>
<path d="M351.293 69.8323H350.186V68.7264H349.737V69.8323H348.63V70.2811H349.737V71.387H350.186V70.2811H351.293V69.8323Z" fill="white"/>
<path d="M509.034 171.341H507.928V170.235H507.478V171.341H506.372V171.789H507.478V172.895H507.928V171.789H509.034V171.341Z" fill="white"/>
<path d="M415.994 237.588H414.887V236.482H414.438V237.588H413.331V238.037H414.438V239.143H414.887V238.037H415.994V237.588Z" fill="white"/>
<path d="M37.4141 279.26H36.3072V278.154H35.8581V279.26H34.7512V279.709H35.8581V280.814H36.3072V279.709H37.4141V279.26Z" fill="white"/>
<path d="M82.865 370.083H81.7582V368.977H81.309V370.083H80.2021V370.532H81.309V371.637H81.7582V370.532H82.865V370.083Z" fill="white"/>
<path d="M225.635 83.1886H224.528V82.0827H224.079V83.1886H222.972V83.6374H224.079V84.7433H224.528V83.6374H225.635V83.1886Z" fill="white"/>
<path d="M158.26 242.93H157.153V241.825H156.704V242.93H155.597V243.379H156.704V244.485H157.153V243.379H158.26V242.93Z" fill="white"/>
<path d="M172.698 196.985H171.591V195.879H171.142V196.985H170.035V197.433H171.142V198.539H171.591V197.433H172.698V196.985Z" fill="white"/>
<g opacity="0.7">
<path opacity="0.7" d="M400.049 303.013C403.451 303.013 406.209 300.257 406.209 296.858C406.209 293.459 403.451 290.703 400.049 290.703C396.647 290.703 393.889 293.459 393.889 296.858C393.889 300.257 396.647 303.013 400.049 303.013Z" fill="url(#paint1_linear_20_231)"/>
</g>
<path opacity="0.2" d="M400.048 302.559C403.2 302.559 405.754 300.006 405.754 296.858C405.754 293.71 403.2 291.158 400.048 291.158C396.897 291.158 394.343 293.71 394.343 296.858C394.343 300.006 396.897 302.559 400.048 302.559Z" fill="black"/>
<path opacity="0.2" d="M415.411 343.359C418.934 343.359 421.79 340.506 421.79 336.986C421.79 333.466 418.934 330.612 415.411 330.612C411.888 330.612 409.032 333.466 409.032 336.986C409.032 340.506 411.888 343.359 415.411 343.359Z" fill="black"/>
<g opacity="0.7">
<path opacity="0.7" d="M358.244 164.032C358.288 150.642 355.077 137.442 348.887 125.566C345.951 119.988 343.272 116.526 341.208 114.394C340.42 113.562 339.39 112.998 338.264 112.782C337.138 112.565 335.972 112.707 334.931 113.187C334.098 113.482 333.346 113.967 332.733 114.603C329.947 117.488 327.429 121.302 325.247 125.357C318.738 137.516 315.362 151.103 315.424 164.892V173.162H310.114V76.9913C310.114 56.8393 305.601 36.9597 296.746 19.3293C292.554 10.9736 288.726 5.78066 285.79 2.59116C285.077 1.77946 284.2 1.1291 283.215 0.683544C282.231 0.237989 281.163 0.00750732 280.082 0.00750732C279.001 0.00750732 277.933 0.237989 276.949 0.683544C275.964 1.1291 275.087 1.77946 274.374 2.59116C270.396 6.91328 266.802 12.6298 263.68 18.7043C254.381 36.7193 249.659 57.1705 249.659 77.9102V173.125H245.071V164.454C245.13 150.674 241.754 137.097 235.249 124.946C233.051 120.891 230.532 117.076 227.763 114.191C226.958 113.338 225.901 112.764 224.746 112.554C223.591 112.345 222.4 112.51 221.346 113.027L221.539 113.128C220.867 113.427 220.259 113.851 219.747 114.378C217.689 116.515 215.01 119.972 212.074 125.55C205.884 137.426 202.672 150.626 202.717 164.016V307.73H219.1L217.293 319.542V354.873H230.693V319.542L228.902 307.725H245.05V176.833H249.638V307.158H262.722L260.846 319.542V354.873H274.246V319.542L272.369 307.142H290.014L288.127 319.542V354.873H301.527V319.542L299.65 307.142H310.098V176.849H315.408V307.939H319.713V307.741H333.947L332.161 319.542V354.873H345.561V319.542L343.769 307.725H358.244V164.032Z" fill="url(#paint2_linear_20_231)"/>
</g>
<g opacity="0.1">
<path opacity="0.1" d="M222.298 303.392H231.714L231.083 299.091H222.929L222.298 303.392Z" fill="black"/>
</g>
<g opacity="0.1">
<path opacity="0.1" d="M331.032 303.392H340.454L339.823 299.091H331.663L331.032 303.392Z" fill="black"/>
</g>
<g opacity="0.1">
<path opacity="0.1" d="M263.524 303.392H272.946L272.315 299.091H264.155L263.524 303.392Z" fill="black"/>
</g>
<g opacity="0.1">
<path opacity="0.1" d="M289.352 303.392H298.773L298.137 299.091H289.983L289.352 303.392Z" fill="black"/>
</g>
<g opacity="0.1">
<path opacity="0.1" d="M237.644 123.162C235.559 119.213 233.179 115.5 230.538 112.69C229.792 111.864 228.795 111.305 227.701 111.099C226.606 110.894 225.475 111.053 224.479 111.552C225.053 111.838 225.571 112.223 226.009 112.69C228.645 115.5 231.03 119.213 233.11 123.162C239.28 135.042 242.471 148.243 242.409 161.628V300.972H246.943V161.633C247.004 148.247 243.813 135.045 237.644 123.162Z" fill="black"/>
</g>
<g opacity="0.1">
<path opacity="0.1" d="M308.206 84.5991H251.574V86.7949H308.206V84.5991Z" fill="black"/>
</g>
<path d="M406.941 166.329C405.456 164.381 403.598 162.746 401.476 161.521C399.038 160.116 396.309 159.29 393.5 159.107C390.691 158.925 387.878 159.39 385.277 160.467C382.677 161.543 380.36 163.203 378.504 165.318C376.648 167.433 375.304 169.945 374.575 172.662C373.847 175.378 373.753 178.226 374.302 180.984C374.85 183.743 376.027 186.338 377.739 188.57C379.452 190.802 381.656 192.61 384.18 193.855C386.704 195.1 389.48 195.749 392.295 195.751C392.686 195.751 393.076 195.751 393.456 195.708C396.764 195.499 399.954 194.399 402.686 192.525C405.419 190.65 407.593 188.071 408.976 185.062C410.36 182.052 410.902 178.724 410.544 175.432C410.187 172.139 408.944 169.005 406.946 166.361L406.941 166.329Z" fill="url(#paint3_linear_20_231)"/>
<path opacity="0.2" d="M409.641 177.378C409.641 181.785 407.959 186.028 404.94 189.241C401.92 192.455 397.789 194.398 393.386 194.677C393.028 194.677 392.659 194.714 392.29 194.714C389.626 194.716 386.998 194.105 384.609 192.929C382.22 191.753 380.134 190.044 378.512 187.933C376.89 185.822 375.776 183.367 375.256 180.757C374.736 178.148 374.825 175.453 375.514 172.883C376.203 170.313 377.476 167.935 379.232 165.935C380.988 163.935 383.182 162.365 385.643 161.348C388.104 160.331 390.766 159.893 393.424 160.068C396.081 160.244 398.663 161.028 400.968 162.36C402.978 163.525 404.734 165.08 406.134 166.933C408.414 169.938 409.646 173.607 409.641 177.378Z" fill="black"/>
<path opacity="0.1" d="M388.017 166.377C387.12 166.763 386.255 167.218 385.429 167.74C384.878 168.04 384.404 168.465 384.044 168.979C383.866 169.238 383.768 169.544 383.762 169.858C383.757 170.173 383.844 170.482 384.012 170.747C384.435 171.324 385.248 171.41 385.964 171.453C386.717 171.548 387.481 171.472 388.199 171.228C388.684 170.989 389.125 170.669 389.504 170.283L390.996 168.931C391.531 168.461 392.065 167.814 391.857 167.152C391.733 166.915 391.553 166.713 391.332 166.564C391.11 166.415 390.855 166.323 390.589 166.297C389.303 166.047 387.97 166.281 386.846 166.954" fill="black"/>
<g opacity="0.1">
<path opacity="0.1" d="M381.788 185.135C382.293 185.135 382.702 184.726 382.702 184.221C382.702 183.717 382.293 183.308 381.788 183.308C381.283 183.308 380.874 183.717 380.874 184.221C380.874 184.726 381.283 185.135 381.788 185.135Z" fill="black"/>
</g>
<g opacity="0.1">
<path opacity="0.1" d="M400.353 181.785C402.202 181.785 403.701 180.288 403.701 178.441C403.701 176.594 402.202 175.096 400.353 175.096C398.504 175.096 397.006 176.594 397.006 178.441C397.006 180.288 398.504 181.785 400.353 181.785Z" fill="black"/>
</g>
<g opacity="0.1">
<path opacity="0.1" d="M406.166 166.933C406.156 167.807 405.895 168.66 405.414 169.391C404.932 170.121 404.251 170.698 403.451 171.053C402.651 171.407 401.766 171.525 400.901 171.391C400.036 171.257 399.228 170.878 398.573 170.298C397.917 169.719 397.443 168.963 397.205 168.122C396.967 167.28 396.976 166.388 397.231 165.552C397.487 164.715 397.977 163.97 398.644 163.404C399.312 162.838 400.127 162.475 400.995 162.36C403.007 163.524 404.765 165.079 406.166 166.933Z" fill="black"/>
</g>
<g opacity="0.1">
<path opacity="0.1" d="M406.476 187.357C404.983 189.48 403.032 191.24 400.766 192.507C398.5 193.774 395.978 194.516 393.386 194.677C393.386 194.436 393.354 194.196 393.354 193.95C393.355 192.429 393.78 190.937 394.579 189.643C395.379 188.348 396.523 187.3 397.883 186.617C399.244 185.933 400.767 185.641 402.285 185.771C403.802 185.902 405.253 186.451 406.476 187.357Z" fill="black"/>
</g>
<path d="M169.912 265.3C168.876 263.932 167.578 262.784 166.094 261.923C164.39 260.924 162.478 260.332 160.508 260.193C158.537 260.053 156.561 260.37 154.733 261.118C152.905 261.867 151.275 263.027 149.969 264.508C148.663 265.989 147.718 267.752 147.205 269.658C146.693 271.564 146.628 273.563 147.016 275.498C147.404 277.434 148.233 279.254 149.44 280.816C150.647 282.379 152.199 283.642 153.975 284.507C155.75 285.372 157.702 285.816 159.677 285.804C159.95 285.804 160.212 285.804 160.49 285.778C162.794 285.623 165.013 284.849 166.914 283.54C168.815 282.23 170.327 280.432 171.291 278.335C172.254 276.238 172.634 273.921 172.389 271.626C172.145 269.332 171.285 267.147 169.901 265.3H169.912Z" fill="url(#paint4_linear_20_231)"/>
<path opacity="0.2" d="M171.794 273.009C171.793 276.084 170.62 279.044 168.513 281.286C166.407 283.528 163.524 284.883 160.452 285.078C160.201 285.078 159.918 285.078 159.688 285.078C157.831 285.077 155.999 284.65 154.334 283.829C152.669 283.009 151.216 281.816 150.086 280.344C148.955 278.873 148.179 277.161 147.817 275.341C147.455 273.522 147.517 271.644 147.997 269.852C148.478 268.06 149.364 266.403 150.588 265.008C151.812 263.613 153.341 262.518 155.056 261.808C156.771 261.098 158.627 260.792 160.48 260.912C162.333 261.033 164.133 261.578 165.741 262.506C167.145 263.322 168.371 264.412 169.345 265.711C170.939 267.81 171.799 270.374 171.794 273.009Z" fill="black"/>
<path opacity="0.1" d="M156.704 265.337C156.079 265.603 155.476 265.919 154.902 266.283C154.52 266.496 154.189 266.792 153.934 267.148C153.816 267.332 153.752 267.546 153.752 267.765C153.752 267.984 153.816 268.198 153.934 268.382C154.112 268.557 154.325 268.692 154.56 268.777C154.794 268.862 155.044 268.895 155.293 268.874C155.818 268.942 156.352 268.889 156.854 268.719C157.194 268.551 157.503 268.327 157.768 268.056L158.806 267.116C159.169 266.785 159.565 266.336 159.405 265.877C159.323 265.708 159.198 265.565 159.043 265.46C158.889 265.355 158.709 265.292 158.522 265.278C157.627 265.103 156.699 265.267 155.918 265.738" fill="black"/>
<g opacity="0.1">
<path opacity="0.1" d="M152.357 278.416C152.708 278.416 152.993 278.131 152.993 277.78C152.993 277.429 152.708 277.144 152.357 277.144C152.005 277.144 151.72 277.429 151.72 277.78C151.72 278.131 152.005 278.416 152.357 278.416Z" fill="black"/>
</g>
<g opacity="0.1">
<path opacity="0.1" d="M165.313 276.086C166.604 276.086 167.65 275.041 167.65 273.752C167.65 272.462 166.604 271.417 165.313 271.417C164.022 271.417 162.976 272.462 162.976 273.752C162.976 275.041 164.022 276.086 165.313 276.086Z" fill="black"/>
</g>
<g opacity="0.1">
<path opacity="0.1" d="M169.35 265.722C169.345 266.338 169.163 266.939 168.825 267.454C168.487 267.969 168.008 268.376 167.445 268.626C166.882 268.876 166.258 268.959 165.649 268.864C165.04 268.769 164.471 268.502 164.011 268.092C163.55 267.683 163.217 267.15 163.052 266.557C162.886 265.964 162.895 265.336 163.078 264.747C163.26 264.159 163.609 263.636 164.081 263.24C164.553 262.845 165.129 262.593 165.741 262.516C167.147 263.332 168.375 264.422 169.35 265.722Z" fill="black"/>
</g>
<g opacity="0.1">
<path opacity="0.1" d="M169.585 279.97C168.544 281.451 167.182 282.68 165.601 283.564C164.02 284.448 162.261 284.965 160.452 285.078C160.452 284.912 160.452 284.741 160.452 284.544C160.453 283.482 160.749 282.442 161.307 281.538C161.865 280.635 162.663 279.904 163.612 279.427C164.561 278.95 165.624 278.746 166.683 278.837C167.741 278.928 168.753 279.311 169.607 279.944L169.585 279.97Z" fill="black"/>
</g>
<path d="M510.601 229.766C511.144 229.766 511.585 229.326 511.585 228.783C511.585 228.241 511.144 227.8 510.601 227.8C510.058 227.8 509.617 228.241 509.617 228.783C509.617 229.326 510.058 229.766 510.601 229.766Z" fill="white"/>
</g>
<defs>
<linearGradient id="paint0_linear_20_231" x1="148.362" y1="372.434" x2="148.362" y2="357.694" gradientUnits="userSpaceOnUse">
<stop stop-color="#808080" stop-opacity="0.25"/>
<stop offset="0.54" stop-color="#808080" stop-opacity="0.12"/>
<stop offset="1" stop-color="#808080" stop-opacity="0.1"/>
</linearGradient>
<linearGradient id="paint1_linear_20_231" x1="9611.01" y1="7271.99" x2="9611.01" y2="6988.51" gradientUnits="userSpaceOnUse">
<stop stop-color="#808080" stop-opacity="0.25"/>
<stop offset="0.54" stop-color="#808080" stop-opacity="0.12"/>
<stop offset="1" stop-color="#808080" stop-opacity="0.1"/>
</linearGradient>
<linearGradient id="paint2_linear_20_231" x1="86821.3" y1="250946" x2="86821.3" y2="15220.2" gradientUnits="userSpaceOnUse">
<stop stop-color="#808080" stop-opacity="0.25"/>
<stop offset="0.54" stop-color="#808080" stop-opacity="0.12"/>
<stop offset="1" stop-color="#808080" stop-opacity="0.1"/>
</linearGradient>
<linearGradient id="paint3_linear_20_231" x1="28489.3" y1="15170.4" x2="28489.3" y2="12651.8" gradientUnits="userSpaceOnUse">
<stop stop-color="#808080" stop-opacity="0.25"/>
<stop offset="0.54" stop-color="#808080" stop-opacity="0.12"/>
<stop offset="1" stop-color="#808080" stop-opacity="0.1"/>
</linearGradient>
<linearGradient id="paint4_linear_20_231" x1="8652.98" y1="15078.6" x2="8652.98" y2="13850" gradientUnits="userSpaceOnUse">
<stop stop-color="#808080" stop-opacity="0.25"/>
<stop offset="0.54" stop-color="#808080" stop-opacity="0.12"/>
<stop offset="1" stop-color="#808080" stop-opacity="0.1"/>
</linearGradient>
<clipPath id="clip0_20_231">
<rect width="607" height="435" fill="white"/>
</clipPath>
</defs>
</svg>
